<svg aria-hidden="true" style="width:0;height:0;position:absolute;overflow:hidden" xmlns="http://www.w3.org/2000/svg"><defs><symbol id="icon-down" viewBox="0 0 32 32"><path d="M29.015 10.434c.293-.228.325-.626.072-.89s-.695-.293-.988-.065l-11.651 9.066L3.712 9.939c-.305-.206-.743-.144-.979.139s-.179.679.126.886l13.182 8.908c.149.101.33.137.503.115a.739.739 0 0 0 .386-.15l12.084-9.402z"/><path d="M29.087 9.544zm-.072.89zm-.916-.955zm-11.65 9.065-.373.552.401.271.382-.297-.409-.526zM3.713 9.939zm-.979.139zm.126.885zm13.182 8.908zm.503.115-.061-.664-.011.001-.011.001.083.661zm.386-.15zm11.675-9.831L28.603 10l-.006-.013c-.004-.012-.006-.025-.005-.039s.005-.025.009-.033c.005-.008.008-.01.005-.008l.819 1.052c.596-.464.678-1.32.144-1.878l-.963.923zm-.097 0a.087.087 0 0 1 .056-.013.102.102 0 0 1 .032.007l.007.004.002.002.963-.923a1.422 1.422 0 0 0-1.879-.13l.819 1.052zM16.858 19.07l11.651-9.066-.819-1.052-11.651 9.066.819 1.052zM3.34 10.491l12.735 8.606.747-1.105L4.086 9.386l-.747 1.105zm-.094.013c.002-.003.016-.015.045-.019s.045.004.048.006l.746-1.105a1.42 1.42 0 0 0-1.865.265l1.025.853zm-.013-.093c-.001-.001.003.002.009.011s.01.02.012.033.001.025-.002.035c-.003.01-.007.015-.006.013L2.221 9.65a1.258 1.258 0 0 0 .265 1.865l.747-1.105zm13.182 8.908L3.233 10.411l-.747 1.105 13.182 8.908.746-1.105zm.047.006c-.028.004-.044-.004-.047-.006l-.746 1.105c.295.199.641.265.959.225l-.166-1.323zm.06-.015a.066.066 0 0 1-.038.012l.122 1.328c.255-.023.513-.116.734-.288l-.819-1.052zm12.084-9.402L16.522 19.31l.819 1.052 12.084-9.402-.819-1.052z"/></symbol><symbol id="icon-menu" viewBox="0 0 24 24"><path d="M3 13h18a1 1 0 0 0 0-2H3a1 1 0 0 0 0 2zm0-6h18a1 1 0 0 0 0-2H3a1 1 0 0 0 0 2zm0 12h18a1 1 0 0 0 0-2H3a1 1 0 0 0 0 2z"/></symbol><symbol id="icon-close" viewBox="0 0 24 24"><path d="M5.293 6.707 10.586 12l-5.293 5.293a.999.999 0 1 0 1.414 1.414L12 13.414l5.293 5.293a.999.999 0 1 0 1.414-1.414L13.414 12l5.293-5.293a.999.999 0 1 0-1.414-1.414L12 10.586 6.707 5.293a.999.999 0 1 0-1.414 1.414z"/></symbol><symbol id="icon-rozkvitay" viewBox="0 0 106 32"><path d="M7.424 12.8H6.167v10.828h1.542v.614H0v-.614h1.542V2.23H0v-.614h7.163c2.056 0 3.511.151 4.365.453.87.28 1.479.625 1.826 1.034.759.84 1.139 2.176 1.139 4.008s-.332 3.146-.996 3.943c-.664.776-1.676 1.239-3.036 1.39v.097c1.281.237 2.174.754 2.68 1.552s.759 2.133.759 4.008v1.713c0 1.121.04 1.875.119 2.263.095.388.285.582.569.582s.506-.172.664-.517c.174-.366.735-1.894.878-3.036l.193 1.096c-.174 1.832-.675 2.801-1.118 3.426-.427.625-1.289.937-2.585.937s-2.222-.409-2.775-1.228c-.538-.84-.806-2.403-.806-4.687v-2.36c0-1.207-.119-2.09-.356-2.651-.221-.56-.64-.84-1.257-.84zM6.167 2.23v9.956h.759c.901 0 1.566-.377 1.993-1.131.443-.754.664-1.982.664-3.685v-.937c0-1.702-.213-2.823-.64-3.362-.411-.56-1.075-.84-1.992-.84h-.783z"/><path d="M23.424 18.057V15.31c0-2.09-.087-3.609-.261-4.558-.158-.97-.538-1.455-1.139-1.455-.348 0-.633.14-.854.42-.206.259-.356.7-.451 1.325-.142.97-.213 2.446-.213 4.428v2.521c0 2.349.047 3.76.142 4.234.111.474.221.862.332 1.164.174.517.514.776 1.02.776.617 0 1.02-.485 1.21-1.455.142-.69.213-2.241.213-4.655zm-1.471 6.69c-1.977 0-3.471-.69-4.483-2.069s-1.518-3.351-1.518-5.915c0-2.586.538-4.568 1.613-5.947 1.091-1.401 2.617-2.101 4.578-2.101s3.424.646 4.388 1.939c.965 1.271 1.447 3.222 1.447 5.851 0 5.495-2.008 8.242-6.025 8.242z"/><path d="M38.895 8.857v.582l-5.622 14.222h.308c1.328 0 2.372-.474 3.131-1.422s1.406-3.438 1.832-5.572l.741-1.515-.842 9.091h-9.962v-.485l5.717-14.319h-.261c-1.597 0-2.712.356-3.345 1.067-.617.711-1.308 3.22-2.04 5.657l-.575.343.955-7.648h9.962z"/><path d="M46.439 24.242v-.582h1.091l-2.681-7.499-.451.162v7.337h1.091v.582h-7.046l.033-.582h1.509V.581h-1.4v-.582h5.811v15.677l.38-.194 5.337-6.044h-2.23v-.582h4.673v.582h-1.66l-2.823 3.265 4.103 10.958h.854v.582h-6.594z"/><path d="M52.559 9.438v-.582h7.093v.582h-1.494l2.846 10.731 2.562-10.731h-1.589v-.582h3.202v.582h-1.044l-3.511 14.804H57.92L53.531 9.438h-.973z"/><path d="M68.76 6.626c-.838 0-1.439-.291-1.803-.873-.348-.582-.522-1.304-.522-2.166s.19-1.573.569-2.133c.395-.56.988-.84 1.779-.84s1.392.259 1.803.776c.411.496.617 1.218.617 2.166 0 .927-.198 1.67-.593 2.23s-1.012.84-1.85.84zm-3.582 2.231h5.811v14.804h1.328v.582h-7.045v-.582h1.305V9.439h-1.399v-.582z"/><path d="M74.178 19.64V9.458H70.99v-.602l3.188.02v-4.17l4.412-1.487v5.657h3.084v.582H78.59v10.893c0 1.013.071 1.756.214 2.23.158.474.474.711.949.711s.886-.323 1.233-.97c.364-.646 1.408-2.01 1.519-3.131l-.04.396c-.126 1.487-.838 2.821-1.408 3.705-.569.862-1.51 1.293-2.823 1.293s-2.317-.356-3.012-1.067c-.696-.711-1.044-2.004-1.044-3.879z"/><path d="M87.789 16.065h.688v-2.489c0-2.047-.087-3.415-.261-4.105-.158-.711-.474-1.067-.949-1.067-.285 0-.546.108-.783.323-.221.194-.332.474-.332.84 0 .345.048.7.142 1.067h.593c.126.453.19 1.002.19 1.648 0 .625-.198 1.174-.593 1.649a1.897 1.897 0 0 1-1.494.679c-1.36 0-2.04-.894-2.04-2.683 0-2.65 1.653-3.976 4.958-3.976 1.882 0 3.178.442 3.89 1.325.727.862 1.091 2.457 1.091 4.784v6.562c0 1.121.229 1.681.688 1.681.538 0 .854-1.11.949-3.329l.356.032c-.063 1.896-.324 3.2-.783 3.911s-1.21 1.067-2.253 1.067c-1.898 0-2.989-.797-3.273-2.392-.205.819-.514 1.422-.925 1.81s-1.012.582-1.803.582c-2.341 0-3.511-1.304-3.511-3.911 0-1.53.443-2.575 1.328-3.135.901-.582 2.277-.873 4.127-.873zm-.949 3.975c0 1.121.039 1.842.119 2.166.095.323.261.485.498.485.253 0 .482-.269.688-.808.222-.56.332-1.325.332-2.295v-3.006h-.166c-.981 0-1.471.98-1.471 2.941v.517z"/><path d="m91.656 9.115-.683-.529 8.786-.053v.582h-1.281l2.585 10.731 2.752-10.731h-1.589v-.582h3.344v.582h-1.186l-4.436 17.422c-.522 2.026-1.107 3.437-1.755 4.234-.648.819-1.439 1.228-2.372 1.228s-1.668-.291-2.206-.873c-.537-.582-.806-1.325-.806-2.23s.174-1.595.522-2.069c.348-.474.806-.711 1.376-.711 1.313 0 1.969.743 1.969 2.23 0 .323-.048.711-.142 1.164h-.83c-.126.496-.142.905-.048 1.228s.309.485.641.485c.648 0 1.226-.442 1.732-1.325.506-.862.988-2.187 1.447-3.976l.522-2.004h-2.087L93.855 9.114h-2.196z"/></symbol><symbol id="icon-line" viewBox="0 0 5 32"><path d="M2.483 32V0h.571v32h-.571z"/></symbol><symbol id="icon-arrow" viewBox="0 0 5 32"><path d="M2.483 31.621a.34.34 0 0 0 .481 0l2.166-2.166a.341.341 0 0 0-.481-.482l-1.926 1.926-1.926-1.926a.34.34 0 1 0-.481.482l2.166 2.166zM2.383 0v31.38h.681V0h-.681z"/></symbol><symbol id="icon-line-desktop" viewBox="0 0 1 32"><path d="M0 32V0h.571v32H0z"/></symbol><symbol id="icon-arrow-desktop" viewBox="0 0 18 32"><path d="M9.31 30.741a.572.572 0 0 0 .808 0l3.637-3.637a.572.572 0 0 0-.808-.808l-3.232 3.232-3.232-3.233a.572.572 0 0 0-.808.808l3.637 3.637zM9.143 4v26.337h1.143V4H9.143z"/></symbol><symbol id="icon-telegram" viewBox="0 0 48 48"><path fill="#29b6f6" d="M24 4a20 20 0 1 0 0 40 20 20 0 1 0 0-40Z"/><path fill="#fff" d="m33.95 15-3.746 19.126s-.161.874-1.245.874c-.576 0-.873-.274-.873-.274l-8.114-6.733-3.97-2.001-5.095-1.355S10 24.375 10 23.625c0-.625.933-.923.933-.923l21.316-8.468c-.001-.001.651-.235 1.126-.234.292 0 .625.125.625.5 0 .25-.05.5-.05.5z"/><path fill="#b0bec5" d="m23 30.505-3.426 3.374s-.149.115-.348.12a.494.494 0 0 1-.219-.043l.964-5.965L23 30.505z"/><path fill="#cfd8dc" d="M29.897 18.196a.5.5 0 0 0-.701-.093L16 26s2.106 5.892 2.427 6.912c.322 1.021.58 1.045.58 1.045l.964-5.965 9.832-9.096a.499.499 0 0 0 .094-.7z"/></symbol><symbol id="icon-phone" viewBox="0 0 24 24"><path d="M14.859 5.981a3.96 3.96 0 0 1 2.31 1.374c.42.51.716 1.124.852 1.793a1 1 0 0 0 1.96-.396 6.079 6.079 0 0 0-1.269-2.669 5.956 5.956 0 0 0-3.47-2.064 1 1 0 0 0-.383 1.963zm.081-3.987a7.932 7.932 0 0 1 5.005 2.544 8.106 8.106 0 0 1 2.062 4.519 1 1 0 0 0 1.986-.234 10.107 10.107 0 0 0-2.571-5.634A9.93 9.93 0 0 0 15.161.006a1 1 0 0 0-.221 1.987zM23 16.92a3.006 3.006 0 0 0-2.598-3.023c-.8-.098-1.695-.314-2.586-.646a3.045 3.045 0 0 0-1.344-.174 2.987 2.987 0 0 0-1.819.855l-.72.72a14.84 14.84 0 0 1-4.583-4.589l.726-.726c.322-.33.563-.726.707-1.156a2.992 2.992 0 0 0-.039-2.011 11.591 11.591 0 0 1-.644-2.595 3.02 3.02 0 0 0-.963-1.804A2.982 2.982 0 0 0 7.11 1H4.114a2.998 2.998 0 0 0-2.989 3.277c.3 3.076 1.365 6.243 3.216 9.102 1.502 2.413 3.648 4.623 6.298 6.306 2.568 1.697 5.684 2.862 9.086 3.231a2.994 2.994 0 0 0 2.406-.874c.54-.544.873-1.297.87-2.121zm-2 0v3a.997.997 0 0 1-.996 1.008c-3.149-.336-5.961-1.391-8.263-2.912-2.428-1.543-4.359-3.537-5.702-5.694-1.697-2.62-2.655-5.481-2.924-8.238-.024-.268.064-.526.229-.724s.403-.33.678-.355L7.11 3a.995.995 0 0 1 .687.256c.17.154.288.366.323.608.142 1.072.408 2.117.757 3.025.081.216.08.447.01.658a1.049 1.049 0 0 1-.242.395L7.383 9.203a1.001 1.001 0 0 0-.162 1.201c1.584 2.785 3.839 4.957 6.381 6.378.397.222.882.144 1.195-.166l1.27-1.27a.984.984 0 0 1 .598-.279c.152-.015.31.005.459.06 1.022.381 2.07.636 3.034.754a.976.976 0 0 1 .615.355c.147.181.231.412.226.682z"/></symbol><symbol id="icon-mail" viewBox="0 0 32 32"><path d="M28 5H4a4 4 0 0 0-4 4v13a4 4 0 0 0 4 4h24a4 4 0 0 0 4-4V9a4 4 0 0 0-4-4zM2 10.25l6.999 5.25L2 20.75v-10.5zM30 22c0 1.104-.898 2-2 2H4c-1.103 0-2-.896-2-2l7.832-5.875 4.368 3.277a3 3 0 0 0 3.599 0l4.369-3.277L30 22zm0-1.25-7-5.25 7-5.25v10.5zm-12.801-2.148c-.349.262-.763.4-1.199.4s-.851-.139-1.2-.4L2 9c0-1.103.897-2 2-2h24c1.102 0 2 .897 2 2l-12.801 9.602z"/></symbol><symbol id="icon-location" viewBox="0 0 32 32"><path d="M16.002 17.746c3.309 0 6-2.692 6-6s-2.691-6-6-6-6 2.691-6 6 2.691 6 6 6zm0-11c2.758 0 5 2.242 5 5s-2.242 5-5 5-5-2.242-5-5 2.242-5 5-5zM16 0C9.382 0 4 5.316 4 12.001c0 7 6.001 14.161 10.376 19.194.016.02.718.805 1.586.805h.077c.867 0 1.57-.785 1.586-.805 4.377-5.033 10.377-12.193 10.377-19.194A11.971 11.971 0 0 0 16 0zm.117 29.883c-.021.02-.082.064-.135.098-.01-.027-.084-.086-.129-.133C12.188 25.631 6 18.514 6 12.001 6 6.487 10.487 2 16 2c5.516 0 10.002 4.487 10.002 10.002 0 6.512-6.188 13.629-9.885 17.881z"/></symbol></defs></svg>